<svg viewBox="0 0 320 80" fill="none" xmlns="http://www.w3.org/2000/svg">
  <!-- Brain left half -->
  <path d="M22 40 C22 28 30 20 38 20 C38 14 43 10 49 12 C51 7 57 6 61 10 C65 6 71 8 72 14 C78 14 82 20 80 26 C84 28 85 34 82 38 C85 42 84 48 80 50 C82 56 78 62 72 62 C71 68 65 70 61 66 C57 70 51 69 49 64 C43 66 38 62 38 56 C30 56 22 50 22 40Z" stroke="url(#brainGrad)" stroke-width="2.5" fill="none" stroke-linejoin="round"/>
  <!-- Brain details -->
  <path d="M38 30 C42 28 46 32 44 38" stroke="url(#brainGrad)" stroke-width="1.8" stroke-linecap="round" fill="none" opacity="0.7"/>
  <path d="M38 50 C42 52 46 48 44 42" stroke="url(#brainGrad)" stroke-width="1.8" stroke-linecap="round" fill="none" opacity="0.7"/>
  <path d="M60 20 C58 26 60 32 64 34" stroke="url(#brainGrad)" stroke-width="1.5" stroke-linecap="round" fill="none" opacity="0.5"/>
  <path d="M60 60 C58 54 60 48 64 46" stroke="url(#brainGrad)" stroke-width="1.5" stroke-linecap="round" fill="none" opacity="0.5"/>

  <!-- Center stem -->
  <path d="M52 62 L52 75" stroke="url(#leafGrad)" stroke-width="2" stroke-linecap="round"/>

  <!-- Main stem going up -->
  <path d="M52 62 C52 50 52 35 52 18" stroke="url(#leafGrad)" stroke-width="2" stroke-linecap="round"/>

  <!-- Leaves -->
  <!-- Top leaf -->
  <path d="M52 18 C52 18 44 10 44 4 C50 4 56 10 52 18Z" fill="url(#leafGrad)" opacity="0.9"/>
  <!-- Upper left leaf -->
  <path d="M52 26 C52 26 42 20 39 14 C45 12 54 18 52 26Z" fill="url(#leafGrad)" opacity="0.85"/>
  <!-- Upper right leaf -->
  <path d="M52 26 C52 26 62 20 65 14 C59 12 50 18 52 26Z" fill="url(#leafGrad)" opacity="0.85"/>
  <!-- Mid left leaf -->
  <path d="M52 38 C52 38 40 34 36 26 C43 24 54 32 52 38Z" fill="url(#leafGrad)" opacity="0.8"/>
  <!-- Mid right leaf -->
  <path d="M52 38 C52 38 64 34 68 26 C61 24 50 32 52 38Z" fill="url(#leafGrad)" opacity="0.8"/>
  <!-- Lower left leaf -->
  <path d="M52 50 C52 50 42 48 38 40 C44 38 54 44 52 50Z" fill="url(#leafGrad)" opacity="0.75"/>
  <!-- Lower right leaf -->
  <path d="M52 50 C52 50 62 48 66 40 C60 38 50 44 52 50Z" fill="url(#leafGrad)" opacity="0.75"/>
  <!-- Bottom left small leaf -->
  <path d="M52 68 C52 68 46 66 43 60 C47 59 53 64 52 68Z" fill="url(#leafGrad)" opacity="0.7"/>
  <!-- Bottom right small leaf -->
  <path d="M52 68 C52 68 58 66 61 60 C57 59 51 64 52 68Z" fill="url(#leafGrad)" opacity="0.7"/>

  <!-- Text: NourishMind -->
  <text x="90" y="50" font-family="Georgia, 'Times New Roman', serif" font-size="28" font-weight="400" letter-spacing="0" fill="url(#textGrad1)">Nourish<tspan fill="url(#textGrad2)">Mind</tspan></text>

  <!-- Gradients -->
  <defs>
    <linearGradient id="brainGrad" x1="22" y1="20" x2="85" y2="62" gradientUnits="userSpaceOnUse">
      <stop offset="0%" stop-color="#1a8a7a"/>
      <stop offset="100%" stop-color="#4a9b8e"/>
    </linearGradient>
    <linearGradient id="leafGrad" x1="36" y1="4" x2="68" y2="75" gradientUnits="userSpaceOnUse">
      <stop offset="0%" stop-color="#8ab89a"/>
      <stop offset="50%" stop-color="#a8c8a0"/>
      <stop offset="100%" stop-color="#6a9870"/>
    </linearGradient>
    <linearGradient id="textGrad1" x1="92" y1="25" x2="232" y2="55" gradientUnits="userSpaceOnUse">
      <stop offset="0%" stop-color="#1a8a7a"/>
      <stop offset="100%" stop-color="#4a9b8e"/>
    </linearGradient>
    <linearGradient id="textGrad2" x1="233" y1="25" x2="310" y2="55" gradientUnits="userSpaceOnUse">
      <stop offset="0%" stop-color="#7aaa90"/>
      <stop offset="100%" stop-color="#a8c8a0"/>
    </linearGradient>
  </defs>
</svg>
